<svg xmlns="http://www.w3.org/2000/svg" viewBox="104.88 165.331 197.742 199.199">
  <path d="M 297.178 262.758 C 297.272 272.423 289.513 280.333 279.849 280.427 L 222.329 280.985 L 222.887 338.504 C 222.981 348.169 215.222 356.079 205.558 356.173 C 195.893 356.267 187.983 348.508 187.889 338.844 L 187.331 281.325 L 129.812 281.883 C 120.147 281.977 112.237 274.218 112.143 264.554 C 112.049 254.889 119.808 246.979 129.472 246.885 L 186.991 246.327 L 186.433 188.807 C 186.339 179.142 194.098 171.232 203.762 171.138 C 213.427 171.044 221.337 178.803 221.431 188.467 L 221.989 245.987 L 279.509 245.429 C 289.174 245.335 297.084 253.094 297.178 262.758 Z" style="fill: rgb(255, 255, 255);"></path>
  <path d="M 294.266 269.154 C 294.356 278.477 286.902 286.107 277.619 286.197 L 222.363 286.736 L 222.899 342.217 C 222.989 351.54 215.536 359.169 206.252 359.26 C 196.967 359.351 189.369 351.867 189.278 342.545 L 188.742 287.064 L 133.487 287.602 C 124.203 287.692 116.604 280.208 116.514 270.887 C 116.424 261.564 123.877 253.934 133.161 253.844 L 188.416 253.305 L 187.88 197.823 C 187.789 188.5 195.243 180.871 204.527 180.78 C 213.811 180.689 221.41 188.173 221.5 197.495 L 222.036 252.977 L 277.292 252.439 C 286.577 252.349 294.175 259.833 294.266 269.154 Z" style="fill: rgb(124, 255, 229);"></path>
  <path d="M 300.179 263.643 C 300.101 269.09 297.826 274.617 294.316 278.196 C 290.805 281.775 285.323 284.157 279.879 284.341 L 225.359 284.87 L 225.888 339.389 C 225.81 344.836 223.535 350.363 220.025 353.942 C 216.514 357.521 211.032 359.903 205.588 360.087 C 200.141 360.009 194.614 357.734 191.035 354.224 C 187.456 350.713 185.074 345.231 184.89 339.787 L 184.361 285.268 L 129.842 285.797 C 124.395 285.719 118.868 283.444 115.289 279.934 C 111.71 276.423 109.328 270.941 109.144 265.497 C 109.222 260.05 111.497 254.523 115.007 250.944 C 118.518 247.365 124 244.983 129.444 244.799 L 183.963 244.27 L 183.434 189.75 C 183.512 184.303 185.787 178.776 189.297 175.197 C 192.808 171.618 198.29 169.236 203.734 169.052 C 209.181 169.13 214.708 171.405 218.287 174.915 C 221.866 178.426 224.248 183.908 224.432 189.352 L 224.961 243.872 L 279.481 243.343 C 284.928 243.421 290.455 245.696 294.034 249.206 C 297.613 252.717 299.995 258.199 300.179 263.643 Z M 289.833 253.49 C 287.017 250.728 283.757 249.171 279.539 249.343 L 219.019 249.93 L 218.432 189.41 C 218.522 185.19 216.902 181.961 214.086 179.199 C 211.27 176.437 208.01 174.88 203.792 175.052 C 199.572 174.962 196.343 176.582 193.581 179.398 C 190.819 182.214 189.262 185.474 189.434 189.692 L 190.021 250.212 L 129.502 250.799 C 125.282 250.709 122.053 252.329 119.291 255.145 C 116.529 257.961 114.972 261.221 115.144 265.439 C 115.054 269.659 116.674 272.888 119.49 275.65 C 122.306 278.412 125.566 279.969 129.784 279.797 L 190.303 279.21 L 190.89 339.729 C 190.8 343.949 192.42 347.178 195.236 349.94 C 198.052 352.702 201.312 354.259 205.53 354.087 C 209.75 354.177 212.979 352.557 215.741 349.741 C 218.503 346.925 220.06 343.665 219.888 339.447 L 219.301 278.928 L 279.821 278.341 C 284.041 278.431 287.27 276.811 290.032 273.995 C 292.794 271.179 294.351 267.919 294.179 263.701 C 294.269 259.481 292.649 256.252 289.833 253.49 Z" style="fill:#007bff;"></path>
</svg>