<svg xmlns="http://www.w3.org/2000/svg" viewBox="186.659 41.616 74.051 104.039">
  <path style="fill: none;stroke-linecap: round;stroke-width: 11px;stroke: #ffd100;transform-origin: 224.291px 97.149px;" d="M 182.436 105.39 C 202.269 114.364 206.824 76.045 190.414 77.331 C 179.602 78.178 194.088 123.439 214.248 121.946 C 240.513 120.001 248.289 66.723 230.374 66.988 C 212.111 67.258 222.604 147.526 266.147 122.463" transform="matrix(-0.304469, -0.952522, 0.952522, -0.304469, 0.000013, -0.000093)"></path>
  <path d="M 176.884 106.568 C 176.992 101.071 183.046 101.339 182.995 101.198 C 180.784 95.072 179.629 88.233 180.01 83.258 C 180.215 80.592 181.997 71.466 190.199 70.64 C 198.376 70.137 202.16 77.507 202.989 79.791 C 204.54 84.067 204.747 90.277 203.695 95.306 C 202.868 99.252 200.938 103.729 198.258 107.041 C 199.238 108.495 200.315 109.865 201.502 111.14 C 204.993 114.89 207.894 117.036 212.156 116.887 C 215.682 117.302 218.399 116.499 220.899 114.764 C 219.702 112.497 218.681 110.164 217.851 107.853 C 214.62 98.846 213.42 88.314 214.37 80.512 C 214.864 76.467 218.032 63.462 228.066 63.208 C 239.555 62.917 242.853 72.179 243.879 75.315 C 245.823 81.256 245.768 89.666 244.035 97.095 C 242.497 103.689 239.347 110.868 235.086 116.346 C 236.743 118.231 238.629 119.796 240.797 121.008 C 246.645 124.278 252.726 124.791 262.302 118.811 C 264.971 117.275 268.379 118.193 269.915 120.862 C 271.451 123.53 270.533 126.937 267.865 128.474 C 255.374 135.195 243.477 135.279 235.357 130.74 C 232.231 128.993 229.395 126.532 226.904 123.651 C 222.439 126.342 217.12 128.008 211.657 128.025 C 204.762 127.376 197.874 123.606 193.341 118.737 C 191.712 116.987 190.189 114.992 188.804 112.869 C 188.441 112.948 188.079 113.01 187.724 113.054 C 184.968 113.396 176.775 112.11 176.884 106.568 Z M 228.929 105.647 C 230.713 104.225 238.795 72.255 229.572 73.612 C 220.933 74.882 228.73 105.137 228.929 105.647 Z M 192.375 94.721 C 192.521 94.187 194.258 83.759 191.127 84.11 C 188.107 84.449 190.213 89.839 192.375 94.721 Z" style="fill: none;stroke-width: 2px;stroke: #007bff;transform-origin: 224.29px 97.149px;z-index: 9999999999999999;" transform="matrix(-0.304469, -0.952522, 0.952522, -0.304469, 0.000006, -0.000006)"></path>
</svg>