<svg xmlns="http://www.w3.org/2000/svg" viewBox="118.115 122.399 53.856 61.2">
  <defs></defs>
  <path d="M 167.687 159.425 A 22.338 22.338 0 0 1 145.349 181.763 A 22.338 22.338 0 0 1 123.011 159.425 A 22.338 22.338 0 0 1 145.349 137.087 A 22.338 22.338 0 0 1 167.687 159.425 Z" style="paint-order: stroke; fill: rgb(255, 122, 152); stroke-width: 13px;"></path>
  <path d="M 170.187 150.245 C 170.187 156.924 167.27 163.451 162.912 167.808 C 158.555 172.166 152.028 175.083 145.349 175.083 C 138.67 175.083 132.143 172.166 127.786 167.808 C 123.428 163.451 120.511 156.924 120.511 150.245 C 120.511 143.566 123.428 137.039 127.786 132.682 C 132.143 128.324 138.67 125.407 145.349 125.407 C 152.028 125.407 158.555 128.324 162.912 132.682 C 167.27 137.039 170.187 143.566 170.187 150.245 Z M 159.377 136.217 C 155.649 132.49 151.007 130.407 145.349 130.407 C 139.691 130.407 135.049 132.49 131.321 136.217 C 127.594 139.945 125.511 144.587 125.511 150.245 C 125.511 155.903 127.594 160.545 131.321 164.273 C 135.049 168 139.691 170.083 145.349 170.083 C 151.007 170.083 155.649 168 159.377 164.273 C 163.104 160.545 165.187 155.903 165.187 150.245 C 165.187 144.587 163.104 139.945 159.377 136.217 Z" style="fill: rgb(0, 123, 255);"></path>
</svg>